<svg xmlns="http://www.w3.org/2000/svg" viewBox="0 0 200 200">
  <defs>
    <clipPath id="c">
      <circle cx="100" cy="100" r="90"/>
    </clipPath>
  </defs>
  <!-- Outer circle border -->
  <circle cx="100" cy="100" r="92" fill="#d0d0d0"/>
  <!-- White background -->
  <circle cx="100" cy="100" r="90" fill="#ffffff"/>
  <g clip-path="url(#c)">
    <!-- Beige/sand petal — bottom left -->
    <path d="M100,130 C80,118 50,115 30,128 C10,142 10,170 10,200 L100,200 Z" fill="#C2B280"/>
    <!-- Dark green leaf — bottom right (extends higher) -->
    <path d="M100,130 C125,105 155,95 175,105 C195,118 195,150 195,200 L100,200 Z" fill="#1A6B4F"/>
    <!-- White vertical separator -->
    <line x1="100" y1="130" x2="100" y2="200" stroke="#ffffff" stroke-width="5"/>
    <!-- Gold arc 1 — outermost (filled band) -->
    <path d="M44,128 C44,32 156,32 156,128 L144,128 C144,44 56,44 56,128 Z" fill="#C9A811"/>
    <!-- Gold arc 2 — middle (filled band) -->
    <path d="M62,128 C62,50 138,50 138,128 L128,128 C128,60 72,60 72,128 Z" fill="#C9A811"/>
    <!-- Gold arc 3 — innermost (filled band) -->
    <path d="M80,128 C80,70 120,70 120,128 L112,128 C112,78 88,78 88,128 Z" fill="#C9A811"/>
  </g>
</svg>
