<svg xmlns="http://www.w3.org/2000/svg" viewBox="0 0 200 200">
  <defs>
    <clipPath id="c">
      <circle cx="100" cy="100" r="90"/>
    </clipPath>
  </defs>
  <!-- Outer circle border -->
  <circle cx="100" cy="100" r="92" fill="#d0d0d0"/>
  <!-- White background -->
  <circle cx="100" cy="100" r="90" fill="#ffffff"/>
  <g clip-path="url(#c)">
    <!-- Beige/sand petal — bottom left -->
    <path d="M100,120 C85,110 55,108 35,120 C15,135 10,165 10,200 L100,200 Z" fill="#C2B280"/>
    <!-- Dark green leaf — bottom right (extends higher) -->
    <path d="M100,120 C118,98 148,86 170,96 C192,108 195,145 195,200 L100,200 Z" fill="#1A6B4F"/>
    <!-- White vertical separator (starts well below arc endpoints) -->
    <line x1="100" y1="132" x2="100" y2="200" stroke="#ffffff" stroke-width="5"/>
    <!-- Gold arc 1 — outermost -->
    <path d="M48,124 C48,36 152,36 152,124" fill="none" stroke="#C9A811" stroke-width="12" stroke-linecap="round"/>
    <!-- Gold arc 2 — middle -->
    <path d="M64,122 C64,50 136,50 136,122" fill="none" stroke="#C9A811" stroke-width="10" stroke-linecap="round"/>
    <!-- Gold arc 3 — innermost -->
    <path d="M80,120 C80,66 120,66 120,120" fill="none" stroke="#C9A811" stroke-width="8" stroke-linecap="round"/>
  </g>
</svg>
