<svg xmlns="http://www.w3.org/2000/svg" viewBox="0 0 200 200">
  <defs>
    <clipPath id="c">
      <circle cx="100" cy="100" r="90"/>
    </clipPath>
  </defs>
  <!-- Outer circle border -->
  <circle cx="100" cy="100" r="92" fill="#d0d0d0"/>
  <!-- White background -->
  <circle cx="100" cy="100" r="90" fill="#ffffff"/>
  <g clip-path="url(#c)">
    <!-- Beige/sand petal — bottom left -->
    <path d="M100,120 C85,110 55,108 35,120 C15,135 10,165 10,200 L100,200 Z" fill="#C2B280"/>
    <!-- Dark green leaf — bottom right -->
    <path d="M100,120 C118,98 148,86 170,96 C192,108 195,145 195,200 L100,200 Z" fill="#1A6B4F"/>
    <!-- White vertical separator -->
    <line x1="100" y1="120" x2="100" y2="200" stroke="#ffffff" stroke-width="5"/>
    <!-- Gold arc 1 — outermost (filled shape) -->
    <path d="M44,122 C44,30 156,30 156,122 L144,122 C144,42 56,42 56,122 Z" fill="#C9A811"/>
    <!-- Gold arc 2 — middle (filled shape) -->
    <path d="M62,122 C62,48 138,48 138,122 L128,122 C128,58 72,58 72,122 Z" fill="#C9A811"/>
    <!-- Gold arc 3 — innermost (filled shape) -->
    <path d="M80,122 C80,68 120,68 120,122 L112,122 C112,76 88,76 88,122 Z" fill="#C9A811"/>
  </g>
</svg>
