<svg xmlns="http://www.w3.org/2000/svg" viewBox="0 0 200 200">
  <defs>
    <clipPath id="c">
      <circle cx="100" cy="100" r="90"/>
    </clipPath>
  </defs>
  <!-- Outer circle border -->
  <circle cx="100" cy="100" r="93" fill="#d0d0d0"/>
  <!-- White background -->
  <circle cx="100" cy="100" r="90" fill="#ffffff"/>
  <g clip-path="url(#c)">
    <!-- Beige/sand shape - bottom left petal -->
    <path d="M100,120 L100,200 L10,200 L10,140 C10,140 35,100 70,95 C88,92 100,102 100,120 Z" fill="#BFB48F"/>
    <!-- Dark green shape - bottom right leaf -->
    <path d="M104,115 C110,95 125,82 150,82 C175,82 190,100 190,120 L190,200 L100,200 L100,120 Z" fill="#1B6B4F"/>
    <!-- White separator line at the junction -->
    <line x1="100" y1="95" x2="100" y2="200" stroke="#ffffff" stroke-width="5"/>
    <!-- Gold arc 1 - outermost -->
    <path d="M48,120 C48,78 70,42 100,30 C130,42 152,78 152,120" fill="none" stroke="#C5A30D" stroke-width="14" stroke-linecap="butt"/>
    <!-- White gap between arcs -->
    <path d="M48,120 C48,78 70,42 100,30 C130,42 152,78 152,120" fill="none" stroke="#ffffff" stroke-width="18" stroke-linecap="butt" stroke-dasharray="0" opacity="0"/>
    <!-- Gold arc 1 -->
    <path d="M50,122 C50,80 72,44 100,32 C128,44 150,80 150,122" fill="none" stroke="#C5A30D" stroke-width="13" stroke-linecap="butt"/>
    <!-- White spacer 1 -->
    <path d="M60,120 C60,84 76,52 100,42 C124,52 140,84 140,120" fill="none" stroke="#ffffff" stroke-width="6" stroke-linecap="butt"/>
    <!-- Gold arc 2 -->
    <path d="M66,120 C66,88 80,58 100,48 C120,58 134,88 134,120" fill="none" stroke="#C5A30D" stroke-width="11" stroke-linecap="butt"/>
    <!-- White spacer 2 -->
    <path d="M74,118 C74,92 84,66 100,56 C116,66 126,92 126,118" fill="none" stroke="#ffffff" stroke-width="5" stroke-linecap="butt"/>
    <!-- Gold arc 3 - innermost -->
    <path d="M78,118 C78,95 88,70 100,62 C112,70 122,95 122,118" fill="none" stroke="#C5A30D" stroke-width="8" stroke-linecap="butt"/>
  </g>
</svg>
