<svg xmlns="http://www.w3.org/2000/svg" viewBox="0 0 200 200">
  <defs>
    <clipPath id="c">
      <circle cx="100" cy="100" r="90"/>
    </clipPath>
  </defs>
  <!-- Outer circle border -->
  <circle cx="100" cy="100" r="92" fill="#d0d0d0"/>
  <!-- White background -->
  <circle cx="100" cy="100" r="90" fill="#ffffff"/>
  <g clip-path="url(#c)">
    <!-- Beige/sand petal — bottom left -->
    <path d="M100,118 C88,106 60,98 40,110 C22,122 12,148 12,175 L12,200 L100,200 Z" fill="#C2B280"/>
    <!-- Dark green leaf — bottom right (extends higher) -->
    <path d="M104,108 C118,90 142,82 162,90 C182,102 192,130 192,160 L192,200 L100,200 L100,118 Z" fill="#1A6B4F"/>
    <!-- White vertical separator -->
    <line x1="100" y1="102" x2="100" y2="200" stroke="#ffffff" stroke-width="5"/>
    <!-- Gold arc 1 — outermost -->
    <path d="M50,118 C50,72 72,40 100,28 C128,40 150,72 150,118" fill="none" stroke="#C9A811" stroke-width="12" stroke-linecap="butt"/>
    <!-- Gold arc 2 — middle -->
    <path d="M66,116 C66,82 80,54 100,44 C120,54 134,82 134,116" fill="none" stroke="#C9A811" stroke-width="10" stroke-linecap="butt"/>
    <!-- Gold arc 3 — innermost -->
    <path d="M82,114 C82,92 90,70 100,62 C110,70 118,92 118,114" fill="none" stroke="#C9A811" stroke-width="8" stroke-linecap="butt"/>
  </g>
</svg>
